<?xml version="1.0" encoding="UTF-8" ?>
<svg width="400" height="400" xmlns="http://www.w3.org" version="1.1">
<text x="260" y="200" font-family="Verdana" font-size="12" transform="rotate(0.0 200,200)">execve</text>
<text x="260" y="200" font-family="Verdana" font-size="12" transform="rotate(10.0 200,200)">brk</text>
<text x="260" y="200" font-family="Verdana" font-size="12" transform="rotate(20.0 200,200)">mmap</text>
<text x="260" y="200" font-family="Verdana" font-size="12" transform="rotate(30.0 200,200)">access</text>
<text x="260" y="200" font-family="Verdana" font-size="12" transform="rotate(40.0 200,200)">open</text>
<text x="260" y="200" font-family="Verdana" font-size="12" transform="rotate(50.0 200,200)">fstat</text>
<text x="260" y="200" font-family="Verdana" font-size="12" transform="rotate(60.0 200,200)">close</text>
<text x="260" y="200" font-family="Verdana" font-size="12" transform="rotate(70.0 200,200)">read</text>
<text x="260" y="200" font-family="Verdana" font-size="12" transform="rotate(80.0 200,200)">mprotect</text>
<text x="260" y="200" font-family="Verdana" font-size="12" transform="rotate(90.0 200,200)">arch_prctl</text>
<text x="260" y="200" font-family="Verdana" font-size="12" transform="rotate(100.0 200,200)rotate(180 260,200)" text-anchor="end">munmap</text>
<text x="260" y="200" font-family="Verdana" font-size="12" transform="rotate(110.0 200,200)rotate(180 260,200)" text-anchor="end">set_tid_address</text>
<text x="260" y="200" font-family="Verdana" font-size="12" transform="rotate(120.0 200,200)rotate(180 260,200)" text-anchor="end">set_robust_list</text>
<text x="260" y="200" font-family="Verdana" font-size="12" transform="rotate(130.0 200,200)rotate(180 260,200)" text-anchor="end">futex</text>
<text x="260" y="200" font-family="Verdana" font-size="12" transform="rotate(140.0 200,200)rotate(180 260,200)" text-anchor="end">rt_sigaction</text>
<text x="260" y="200" font-family="Verdana" font-size="12" transform="rotate(150.0 200,200)rotate(180 260,200)" text-anchor="end">rt_sigprocmask</text>
<text x="260" y="200" font-family="Verdana" font-size="12" transform="rotate(160.0 200,200)rotate(180 260,200)" text-anchor="end">getrlimit</text>
<text x="260" y="200" font-family="Verdana" font-size="12" transform="rotate(170.0 200,200)rotate(180 260,200)" text-anchor="end">statfs</text>
<text x="260" y="200" font-family="Verdana" font-size="12" transform="rotate(180.0 200,200)rotate(180 260,200)" text-anchor="end">ioctl</text>
<text x="260" y="200" font-family="Verdana" font-size="12" transform="rotate(190.0 200,200)rotate(180 260,200)" text-anchor="end">fcntl</text>
<text x="260" y="200" font-family="Verdana" font-size="12" transform="rotate(200.0 200,200)rotate(180 260,200)" text-anchor="end">getdents</text>
<text x="260" y="200" font-family="Verdana" font-size="12" transform="rotate(210.0 200,200)rotate(180 260,200)" text-anchor="end">lstat</text>
<text x="260" y="200" font-family="Verdana" font-size="12" transform="rotate(220.0 200,200)rotate(180 260,200)" text-anchor="end">lgetxattr</text>
<text x="260" y="200" font-family="Verdana" font-size="12" transform="rotate(230.0 200,200)rotate(180 260,200)" text-anchor="end">socket</text>
<text x="260" y="200" font-family="Verdana" font-size="12" transform="rotate(240.0 200,200)rotate(180 260,200)" text-anchor="end">connect</text>
<text x="260" y="200" font-family="Verdana" font-size="12" transform="rotate(250.0 200,200)rotate(180 260,200)" text-anchor="end">uname</text>
<text x="260" y="200" font-family="Verdana" font-size="12" transform="rotate(260.0 200,200)rotate(180 260,200)" text-anchor="end">pread</text>
<text x="260" y="200" font-family="Verdana" font-size="12" transform="rotate(270.0 200,200)rotate(180 260,200)" text-anchor="end">bind</text>
<text x="260" y="200" font-family="Verdana" font-size="12" transform="rotate(280.0 200,200)">setsockopt</text>
<text x="260" y="200" font-family="Verdana" font-size="12" transform="rotate(290.0 200,200)">sendto</text>
<text x="260" y="200" font-family="Verdana" font-size="12" transform="rotate(300.0 200,200)">poll</text>
<text x="260" y="200" font-family="Verdana" font-size="12" transform="rotate(310.0 200,200)">recvfrom</text>
<text x="260" y="200" font-family="Verdana" font-size="12" transform="rotate(320.0 200,200)">write</text>
<text x="260" y="200" font-family="Verdana" font-size="12" transform="rotate(330.0 200,200)">lseek</text>
<text x="260" y="200" font-family="Verdana" font-size="12" transform="rotate(340.0 200,200)">stat</text>
<text x="260" y="200" font-family="Verdana" font-size="12" transform="rotate(350.0 200,200)">exit_group</text>
<line x1="260.0" y1="200.0" x2="149.65570825541286" y2="167.35873334663782" style="stroke:rgb(0,0,0);stroke-width:1" /><line x1="149.65570825541286" y1="167.35873334663782" x2="224.4849237088035" y2="254.77671504365765" style="stroke:rgb(0,0,0);stroke-width:1" /><line x1="224.4849237088035" y1="254.77671504365765" x2="209.25508699325505" y2="140.7181025544283" style="stroke:rgb(0,0,0);stroke-width:1" /><line x1="209.25508699325505" y1="140.7181025544283" x2="159.98371630086427" y2="244.70678962876093" style="stroke:rgb(0,0,0);stroke-width:1" /><line x1="159.98371630086427" y1="244.70678962876093" x2="257.8979617095268" y2="184.2575087777643" style="stroke:rgb(0,0,0);stroke-width:1" /><line x1="257.8979617095268" y1="184.2575087777643" x2="224.4849237088035" y2="254.77671504365765" style="stroke:rgb(0,0,0);stroke-width:1" /><line x1="224.4849237088035" y1="254.77671504365765" x2="142.8552211750906" y2="181.711362733867" style="stroke:rgb(0,0,0);stroke-width:1" /><line x1="142.8552211750906" y1="181.711362733867" x2="159.98371630086427" y2="244.70678962876093" style="stroke:rgb(0,0,0);stroke-width:1" /><line x1="159.98371630086427" y1="244.70678962876093" x2="237.999152185178" y2="246.43344089347335" style="stroke:rgb(0,0,0);stroke-width:1" /><line x1="237.999152185178" y1="246.43344089347335" x2="257.8979617095268" y2="184.2575087777643" style="stroke:rgb(0,0,0);stroke-width:1" /><line x1="257.8979617095268" y1="184.2575087777643" x2="224.4849237088035" y2="254.77671504365765" style="stroke:rgb(0,0,0);stroke-width:1" /><line x1="224.4849237088035" y1="254.77671504365765" x2="193.37676536965714" y2="140.3666807645975" style="stroke:rgb(0,0,0);stroke-width:1" /><line x1="193.37676536965714" y1="140.3666807645975" x2="224.4849237088035" y2="254.77671504365765" style="stroke:rgb(0,0,0);stroke-width:1" /><line x1="224.4849237088035" y1="254.77671504365765" x2="224.4849237088035" y2="254.77671504365765" style="stroke:rgb(0,0,0);stroke-width:1" /><line x1="224.4849237088035" y1="254.77671504365765" x2="142.8552211750906" y2="181.711362733867" style="stroke:rgb(0,0,0);stroke-width:1" /><line x1="142.8552211750906" y1="181.711362733867" x2="159.98371630086427" y2="244.70678962876093" style="stroke:rgb(0,0,0);stroke-width:1" /><line x1="159.98371630086427" y1="244.70678962876093" x2="237.999152185178" y2="246.43344089347335" style="stroke:rgb(0,0,0);stroke-width:1" /><line x1="237.999152185178" y1="246.43344089347335" x2="257.8979617095268" y2="184.2575087777643" style="stroke:rgb(0,0,0);stroke-width:1" /><line x1="257.8979617095268" y1="184.2575087777643" x2="224.4849237088035" y2="254.77671504365765" style="stroke:rgb(0,0,0);stroke-width:1" /><line x1="224.4849237088035" y1="254.77671504365765" x2="193.37676536965714" y2="140.3666807645975" style="stroke:rgb(0,0,0);stroke-width:1" /><line x1="193.37676536965714" y1="140.3666807645975" x2="224.4849237088035" y2="254.77671504365765" style="stroke:rgb(0,0,0);stroke-width:1" /><line x1="224.4849237088035" y1="254.77671504365765" x2="142.8552211750906" y2="181.711362733867" style="stroke:rgb(0,0,0);stroke-width:1" /><line x1="142.8552211750906" y1="181.711362733867" x2="159.98371630086427" y2="244.70678962876093" style="stroke:rgb(0,0,0);stroke-width:1" /><line x1="159.98371630086427" y1="244.70678962876093" x2="237.999152185178" y2="246.43344089347335" style="stroke:rgb(0,0,0);stroke-width:1" /><line x1="237.999152185178" y1="246.43344089347335" x2="257.8979617095268" y2="184.2575087777643" style="stroke:rgb(0,0,0);stroke-width:1" /><line x1="257.8979617095268" y1="184.2575087777643" x2="224.4849237088035" y2="254.77671504365765" style="stroke:rgb(0,0,0);stroke-width:1" /><line x1="224.4849237088035" y1="254.77671504365765" x2="224.4849237088035" y2="254.77671504365765" style="stroke:rgb(0,0,0);stroke-width:1" /><line x1="224.4849237088035" y1="254.77671504365765" x2="193.37676536965714" y2="140.3666807645975" style="stroke:rgb(0,0,0);stroke-width:1" /><line x1="193.37676536965714" y1="140.3666807645975" x2="224.4849237088035" y2="254.77671504365765" style="stroke:rgb(0,0,0);stroke-width:1" /><line x1="224.4849237088035" y1="254.77671504365765" x2="142.8552211750906" y2="181.711362733867" style="stroke:rgb(0,0,0);stroke-width:1" /><line x1="142.8552211750906" y1="181.711362733867" x2="159.98371630086427" y2="244.70678962876093" style="stroke:rgb(0,0,0);stroke-width:1" /><line x1="159.98371630086427" y1="244.70678962876093" x2="237.999152185178" y2="246.43344089347335" style="stroke:rgb(0,0,0);stroke-width:1" /><line x1="237.999152185178" y1="246.43344089347335" x2="257.8979617095268" y2="184.2575087777643" style="stroke:rgb(0,0,0);stroke-width:1" /><line x1="257.8979617095268" y1="184.2575087777643" x2="224.4849237088035" y2="254.77671504365765" style="stroke:rgb(0,0,0);stroke-width:1" /><line x1="224.4849237088035" y1="254.77671504365765" x2="193.37676536965714" y2="140.3666807645975" style="stroke:rgb(0,0,0);stroke-width:1" /><line x1="193.37676536965714" y1="140.3666807645975" x2="224.4849237088035" y2="254.77671504365765" style="stroke:rgb(0,0,0);stroke-width:1" /><line x1="224.4849237088035" y1="254.77671504365765" x2="142.8552211750906" y2="181.711362733867" style="stroke:rgb(0,0,0);stroke-width:1" /><line x1="142.8552211750906" y1="181.711362733867" x2="159.98371630086427" y2="244.70678962876093" style="stroke:rgb(0,0,0);stroke-width:1" /><line x1="159.98371630086427" y1="244.70678962876093" x2="237.999152185178" y2="246.43344089347335" style="stroke:rgb(0,0,0);stroke-width:1" /><line x1="237.999152185178" y1="246.43344089347335" x2="257.8979617095268" y2="184.2575087777643" style="stroke:rgb(0,0,0);stroke-width:1" /><line x1="257.8979617095268" y1="184.2575087777643" x2="224.4849237088035" y2="254.77671504365765" style="stroke:rgb(0,0,0);stroke-width:1" /><line x1="224.4849237088035" y1="254.77671504365765" x2="193.37676536965714" y2="140.3666807645975" style="stroke:rgb(0,0,0);stroke-width:1" /><line x1="193.37676536965714" y1="140.3666807645975" x2="224.4849237088035" y2="254.77671504365765" style="stroke:rgb(0,0,0);stroke-width:1" /><line x1="224.4849237088035" y1="254.77671504365765" x2="224.4849237088035" y2="254.77671504365765" style="stroke:rgb(0,0,0);stroke-width:1" /><line x1="224.4849237088035" y1="254.77671504365765" x2="142.8552211750906" y2="181.711362733867" style="stroke:rgb(0,0,0);stroke-width:1" /><line x1="142.8552211750906" y1="181.711362733867" x2="159.98371630086427" y2="244.70678962876093" style="stroke:rgb(0,0,0);stroke-width:1" /><line x1="159.98371630086427" y1="244.70678962876093" x2="237.999152185178" y2="246.43344089347335" style="stroke:rgb(0,0,0);stroke-width:1" /><line x1="237.999152185178" y1="246.43344089347335" x2="257.8979617095268" y2="184.2575087777643" style="stroke:rgb(0,0,0);stroke-width:1" /><line x1="257.8979617095268" y1="184.2575087777643" x2="224.4849237088035" y2="254.77671504365765" style="stroke:rgb(0,0,0);stroke-width:1" /><line x1="224.4849237088035" y1="254.77671504365765" x2="224.4849237088035" y2="254.77671504365765" style="stroke:rgb(0,0,0);stroke-width:1" /><line x1="224.4849237088035" y1="254.77671504365765" x2="193.37676536965714" y2="140.3666807645975" style="stroke:rgb(0,0,0);stroke-width:1" /><line x1="193.37676536965714" y1="140.3666807645975" x2="224.4849237088035" y2="254.77671504365765" style="stroke:rgb(0,0,0);stroke-width:1" /><line x1="224.4849237088035" y1="254.77671504365765" x2="142.8552211750906" y2="181.711362733867" style="stroke:rgb(0,0,0);stroke-width:1" /><line x1="142.8552211750906" y1="181.711362733867" x2="159.98371630086427" y2="244.70678962876093" style="stroke:rgb(0,0,0);stroke-width:1" /><line x1="159.98371630086427" y1="244.70678962876093" x2="237.999152185178" y2="246.43344089347335" style="stroke:rgb(0,0,0);stroke-width:1" /><line x1="237.999152185178" y1="246.43344089347335" x2="257.8979617095268" y2="184.2575087777643" style="stroke:rgb(0,0,0);stroke-width:1" /><line x1="257.8979617095268" y1="184.2575087777643" x2="224.4849237088035" y2="254.77671504365765" style="stroke:rgb(0,0,0);stroke-width:1" /><line x1="224.4849237088035" y1="254.77671504365765" x2="193.37676536965714" y2="140.3666807645975" style="stroke:rgb(0,0,0);stroke-width:1" /><line x1="193.37676536965714" y1="140.3666807645975" x2="224.4849237088035" y2="254.77671504365765" style="stroke:rgb(0,0,0);stroke-width:1" /><line x1="224.4849237088035" y1="254.77671504365765" x2="224.4849237088035" y2="254.77671504365765" style="stroke:rgb(0,0,0);stroke-width:1" /><line x1="224.4849237088035" y1="254.77671504365765" x2="142.8552211750906" y2="181.711362733867" style="stroke:rgb(0,0,0);stroke-width:1" /><line x1="142.8552211750906" y1="181.711362733867" x2="159.98371630086427" y2="244.70678962876093" style="stroke:rgb(0,0,0);stroke-width:1" /><line x1="159.98371630086427" y1="244.70678962876093" x2="237.999152185178" y2="246.43344089347335" style="stroke:rgb(0,0,0);stroke-width:1" /><line x1="237.999152185178" y1="246.43344089347335" x2="257.8979617095268" y2="184.2575087777643" style="stroke:rgb(0,0,0);stroke-width:1" /><line x1="257.8979617095268" y1="184.2575087777643" x2="224.4849237088035" y2="254.77671504365765" style="stroke:rgb(0,0,0);stroke-width:1" /><line x1="224.4849237088035" y1="254.77671504365765" x2="193.37676536965714" y2="140.3666807645975" style="stroke:rgb(0,0,0);stroke-width:1" /><line x1="193.37676536965714" y1="140.3666807645975" x2="224.4849237088035" y2="254.77671504365765" style="stroke:rgb(0,0,0);stroke-width:1" /><line x1="224.4849237088035" y1="254.77671504365765" x2="142.8552211750906" y2="181.711362733867" style="stroke:rgb(0,0,0);stroke-width:1" /><line x1="142.8552211750906" y1="181.711362733867" x2="224.4849237088035" y2="254.77671504365765" style="stroke:rgb(0,0,0);stroke-width:1" /><line x1="224.4849237088035" y1="254.77671504365765" x2="224.4849237088035" y2="254.77671504365765" style="stroke:rgb(0,0,0);stroke-width:1" /><line x1="224.4849237088035" y1="254.77671504365765" x2="173.1155830322498" y2="253.63979981603347" style="stroke:rgb(0,0,0);stroke-width:1" /><line x1="173.1155830322498" y1="253.63979981603347" x2="193.37676536965714" y2="140.3666807645975" style="stroke:rgb(0,0,0);stroke-width:1" /><line x1="193.37676536965714" y1="140.3666807645975" x2="193.37676536965714" y2="140.3666807645975" style="stroke:rgb(0,0,0);stroke-width:1" /><line x1="193.37676536965714" y1="140.3666807645975" x2="193.37676536965714" y2="140.3666807645975" style="stroke:rgb(0,0,0);stroke-width:1" /><line x1="193.37676536965714" y1="140.3666807645975" x2="193.37676536965714" y2="140.3666807645975" style="stroke:rgb(0,0,0);stroke-width:1" /><line x1="193.37676536965714" y1="140.3666807645975" x2="193.37676536965714" y2="140.3666807645975" style="stroke:rgb(0,0,0);stroke-width:1" /><line x1="193.37676536965714" y1="140.3666807645975" x2="193.37676536965714" y2="140.3666807645975" style="stroke:rgb(0,0,0);stroke-width:1" /><line x1="193.37676536965714" y1="140.3666807645975" x2="193.37676536965714" y2="140.3666807645975" style="stroke:rgb(0,0,0);stroke-width:1" /><line x1="193.37676536965714" y1="140.3666807645975" x2="193.37676536965714" y2="140.3666807645975" style="stroke:rgb(0,0,0);stroke-width:1" /><line x1="193.37676536965714" y1="140.3666807645975" x2="251.73913233726103" y2="169.61806153341448" style="stroke:rgb(0,0,0);stroke-width:1" /><line x1="251.73913233726103" y1="169.61806153341448" x2="140.0587512011211" y2="197.34543931489574" style="stroke:rgb(0,0,0);stroke-width:1" /><line x1="140.0587512011211" y1="197.34543931489574" x2="248.8508582315937" y2="234.83667105273886" style="stroke:rgb(0,0,0);stroke-width:1" /><line x1="248.8508582315937" y1="234.83667105273886" x2="177.9625201727182" y2="144.1936429887943" style="stroke:rgb(0,0,0);stroke-width:1" /><line x1="177.9625201727182" y1="144.1936429887943" x2="177.9625201727182" y2="144.1936429887943" style="stroke:rgb(0,0,0);stroke-width:1" /><line x1="177.9625201727182" y1="144.1936429887943" x2="188.1311855597439" y2="258.81437956641867" style="stroke:rgb(0,0,0);stroke-width:1" /><line x1="188.1311855597439" y1="258.81437956641867" x2="188.1311855597439" y2="258.81437956641867" style="stroke:rgb(0,0,0);stroke-width:1" /><line x1="188.1311855597439" y1="258.81437956641867" x2="241.9550483887025" y2="157.10741422225013" style="stroke:rgb(0,0,0);stroke-width:1" /><line x1="241.9550483887025" y1="157.10741422225013" x2="141.46224123228575" y2="213.16551550274028" style="stroke:rgb(0,0,0);stroke-width:1" /><line x1="141.46224123228575" y1="213.16551550274028" x2="256.2796851271665" y2="220.7989673298218" style="stroke:rgb(0,0,0);stroke-width:1" /><line x1="256.2796851271665" y1="220.7989673298218" x2="149.65570825541286" y2="167.35873334663782" style="stroke:rgb(0,0,0);stroke-width:1" /><line x1="149.65570825541286" y1="167.35873334663782" x2="149.65570825541286" y2="167.35873334663782" style="stroke:rgb(0,0,0);stroke-width:1" /><line x1="149.65570825541286" y1="167.35873334663782" x2="159.98371630086427" y2="244.70678962876093" style="stroke:rgb(0,0,0);stroke-width:1" /><line x1="159.98371630086427" y1="244.70678962876093" x2="257.8979617095268" y2="184.2575087777643" style="stroke:rgb(0,0,0);stroke-width:1" /><line x1="257.8979617095268" y1="184.2575087777643" x2="224.4849237088035" y2="254.77671504365765" style="stroke:rgb(0,0,0);stroke-width:1" /><line x1="224.4849237088035" y1="254.77671504365765" x2="237.999152185178" y2="246.43344089347335" style="stroke:rgb(0,0,0);stroke-width:1" /><line x1="237.999152185178" y1="246.43344089347335" x2="237.999152185178" y2="246.43344089347335" style="stroke:rgb(0,0,0);stroke-width:1" /><line x1="237.999152185178" y1="246.43344089347335" x2="142.8552211750906" y2="181.711362733867" style="stroke:rgb(0,0,0);stroke-width:1" /><line x1="142.8552211750906" y1="181.711362733867" x2="251.73913233726103" y2="169.61806153341448" style="stroke:rgb(0,0,0);stroke-width:1" /><line x1="251.73913233726103" y1="169.61806153341448" x2="159.98371630086427" y2="244.70678962876093" style="stroke:rgb(0,0,0);stroke-width:1" /><line x1="159.98371630086427" y1="244.70678962876093" x2="257.8979617095268" y2="184.2575087777643" style="stroke:rgb(0,0,0);stroke-width:1" /><line x1="257.8979617095268" y1="184.2575087777643" x2="224.4849237088035" y2="254.77671504365765" style="stroke:rgb(0,0,0);stroke-width:1" /><line x1="224.4849237088035" y1="254.77671504365765" x2="142.8552211750906" y2="181.711362733867" style="stroke:rgb(0,0,0);stroke-width:1" /><line x1="142.8552211750906" y1="181.711362733867" x2="164.09239585652853" y2="151.9308418559702" style="stroke:rgb(0,0,0);stroke-width:1" /><line x1="164.09239585652853" y1="151.9308418559702" x2="164.09239585652853" y2="151.9308418559702" style="stroke:rgb(0,0,0);stroke-width:1" /><line x1="164.09239585652853" y1="151.9308418559702" x2="159.98371630086427" y2="244.70678962876093" style="stroke:rgb(0,0,0);stroke-width:1" /><line x1="159.98371630086427" y1="244.70678962876093" x2="257.8979617095268" y2="184.2575087777643" style="stroke:rgb(0,0,0);stroke-width:1" /><line x1="257.8979617095268" y1="184.2575087777643" x2="224.4849237088035" y2="254.77671504365765" style="stroke:rgb(0,0,0);stroke-width:1" /><line x1="224.4849237088035" y1="254.77671504365765" x2="237.999152185178" y2="246.43344089347335" style="stroke:rgb(0,0,0);stroke-width:1" /><line x1="237.999152185178" y1="246.43344089347335" x2="237.999152185178" y2="246.43344089347335" style="stroke:rgb(0,0,0);stroke-width:1" /><line x1="237.999152185178" y1="246.43344089347335" x2="142.8552211750906" y2="181.711362733867" style="stroke:rgb(0,0,0);stroke-width:1" /><line x1="142.8552211750906" y1="181.711362733867" x2="251.73913233726103" y2="169.61806153341448" style="stroke:rgb(0,0,0);stroke-width:1" /><line x1="251.73913233726103" y1="169.61806153341448" x2="159.98371630086427" y2="244.70678962876093" style="stroke:rgb(0,0,0);stroke-width:1" /><line x1="159.98371630086427" y1="244.70678962876093" x2="159.98371630086427" y2="244.70678962876093" style="stroke:rgb(0,0,0);stroke-width:1" /><line x1="159.98371630086427" y1="244.70678962876093" x2="159.98371630086427" y2="244.70678962876093" style="stroke:rgb(0,0,0);stroke-width:1" /><line x1="159.98371630086427" y1="244.70678962876093" x2="159.98371630086427" y2="244.70678962876093" style="stroke:rgb(0,0,0);stroke-width:1" /><line x1="159.98371630086427" y1="244.70678962876093" x2="159.98371630086427" y2="244.70678962876093" style="stroke:rgb(0,0,0);stroke-width:1" /><line x1="159.98371630086427" y1="244.70678962876093" x2="159.98371630086427" y2="244.70678962876093" style="stroke:rgb(0,0,0);stroke-width:1" /><line x1="159.98371630086427" y1="244.70678962876093" x2="257.8979617095268" y2="184.2575087777643" style="stroke:rgb(0,0,0);stroke-width:1" /><line x1="257.8979617095268" y1="184.2575087777643" x2="224.4849237088035" y2="254.77671504365765" style="stroke:rgb(0,0,0);stroke-width:1" /><line x1="224.4849237088035" y1="254.77671504365765" x2="142.8552211750906" y2="181.711362733867" style="stroke:rgb(0,0,0);stroke-width:1" /><line x1="142.8552211750906" y1="181.711362733867" x2="159.98371630086427" y2="244.70678962876093" style="stroke:rgb(0,0,0);stroke-width:1" /><line x1="159.98371630086427" y1="244.70678962876093" x2="257.8979617095268" y2="184.2575087777643" style="stroke:rgb(0,0,0);stroke-width:1" /><line x1="257.8979617095268" y1="184.2575087777643" x2="224.4849237088035" y2="254.77671504365765" style="stroke:rgb(0,0,0);stroke-width:1" /><line x1="224.4849237088035" y1="254.77671504365765" x2="142.8552211750906" y2="181.711362733867" style="stroke:rgb(0,0,0);stroke-width:1" /><line x1="142.8552211750906" y1="181.711362733867" x2="177.9625201727182" y2="144.1936429887943" style="stroke:rgb(0,0,0);stroke-width:1" /><line x1="177.9625201727182" y1="144.1936429887943" x2="159.98371630086427" y2="244.70678962876093" style="stroke:rgb(0,0,0);stroke-width:1" /><line x1="159.98371630086427" y1="244.70678962876093" x2="203.97841150110267" y2="259.867956720836" style="stroke:rgb(0,0,0);stroke-width:1" /><line x1="203.97841150110267" y1="259.867956720836" x2="229.23126050042035" y2="147.60216216716032" style="stroke:rgb(0,0,0);stroke-width:1" /><line x1="229.23126050042035" y1="147.60216216716032" x2="146.9673516090577" y2="228.06311110056555" style="stroke:rgb(0,0,0);stroke-width:1" /><line x1="146.9673516090577" y1="228.06311110056555" x2="259.7651102523033" y2="205.30392274925188" style="stroke:rgb(0,0,0);stroke-width:1" /><line x1="259.7651102523033" y1="205.30392274925188" x2="146.9673516090577" y2="228.06311110056555" style="stroke:rgb(0,0,0);stroke-width:1" /><line x1="146.9673516090577" y1="228.06311110056555" x2="259.7651102523033" y2="205.30392274925188" style="stroke:rgb(0,0,0);stroke-width:1" /><line x1="259.7651102523033" y1="205.30392274925188" x2="152.73824350129652" y2="163.03614775679813" style="stroke:rgb(0,0,0);stroke-width:1" /><line x1="152.73824350129652" y1="163.03614775679813" x2="219.5468783321089" y2="256.726709295267" style="stroke:rgb(0,0,0);stroke-width:1" /><line x1="219.5468783321089" y1="256.726709295267" x2="142.8552211750906" y2="181.711362733867" style="stroke:rgb(0,0,0);stroke-width:1" /><line x1="142.8552211750906" y1="181.711362733867" x2="152.73824350129652" y2="163.03614775679813" style="stroke:rgb(0,0,0);stroke-width:1" /><line x1="152.73824350129652" y1="163.03614775679813" x2="219.5468783321089" y2="256.726709295267" style="stroke:rgb(0,0,0);stroke-width:1" /><line x1="219.5468783321089" y1="256.726709295267" x2="142.8552211750906" y2="181.711362733867" style="stroke:rgb(0,0,0);stroke-width:1" /><line x1="142.8552211750906" y1="181.711362733867" x2="159.98371630086427" y2="244.70678962876093" style="stroke:rgb(0,0,0);stroke-width:1" /><line x1="159.98371630086427" y1="244.70678962876093" x2="257.8979617095268" y2="184.2575087777643" style="stroke:rgb(0,0,0);stroke-width:1" /><line x1="257.8979617095268" y1="184.2575087777643" x2="224.4849237088035" y2="254.77671504365765" style="stroke:rgb(0,0,0);stroke-width:1" /><line x1="224.4849237088035" y1="254.77671504365765" x2="237.999152185178" y2="246.43344089347335" style="stroke:rgb(0,0,0);stroke-width:1" /><line x1="237.999152185178" y1="246.43344089347335" x2="237.999152185178" y2="246.43344089347335" style="stroke:rgb(0,0,0);stroke-width:1" /><line x1="237.999152185178" y1="246.43344089347335" x2="142.8552211750906" y2="181.711362733867" style="stroke:rgb(0,0,0);stroke-width:1" /><line x1="142.8552211750906" y1="181.711362733867" x2="251.73913233726103" y2="169.61806153341448" style="stroke:rgb(0,0,0);stroke-width:1" /><line x1="251.73913233726103" y1="169.61806153341448" x2="159.98371630086427" y2="244.70678962876093" style="stroke:rgb(0,0,0);stroke-width:1" /><line x1="159.98371630086427" y1="244.70678962876093" x2="257.8979617095268" y2="184.2575087777643" style="stroke:rgb(0,0,0);stroke-width:1" /><line x1="257.8979617095268" y1="184.2575087777643" x2="224.4849237088035" y2="254.77671504365765" style="stroke:rgb(0,0,0);stroke-width:1" /><line x1="224.4849237088035" y1="254.77671504365765" x2="142.8552211750906" y2="181.711362733867" style="stroke:rgb(0,0,0);stroke-width:1" /><line x1="142.8552211750906" y1="181.711362733867" x2="159.98371630086427" y2="244.70678962876093" style="stroke:rgb(0,0,0);stroke-width:1" /><line x1="159.98371630086427" y1="244.70678962876093" x2="237.999152185178" y2="246.43344089347335" style="stroke:rgb(0,0,0);stroke-width:1" /><line x1="237.999152185178" y1="246.43344089347335" x2="257.8979617095268" y2="184.2575087777643" style="stroke:rgb(0,0,0);stroke-width:1" /><line x1="257.8979617095268" y1="184.2575087777643" x2="224.4849237088035" y2="254.77671504365765" style="stroke:rgb(0,0,0);stroke-width:1" /><line x1="224.4849237088035" y1="254.77671504365765" x2="193.37676536965714" y2="140.3666807645975" style="stroke:rgb(0,0,0);stroke-width:1" /><line x1="193.37676536965714" y1="140.3666807645975" x2="224.4849237088035" y2="254.77671504365765" style="stroke:rgb(0,0,0);stroke-width:1" /><line x1="224.4849237088035" y1="254.77671504365765" x2="142.8552211750906" y2="181.711362733867" style="stroke:rgb(0,0,0);stroke-width:1" /><line x1="142.8552211750906" y1="181.711362733867" x2="193.37676536965714" y2="140.3666807645975" style="stroke:rgb(0,0,0);stroke-width:1" /><line x1="193.37676536965714" y1="140.3666807645975" x2="251.73913233726103" y2="169.61806153341448" style="stroke:rgb(0,0,0);stroke-width:1" /><line x1="251.73913233726103" y1="169.61806153341448" x2="159.98371630086427" y2="244.70678962876093" style="stroke:rgb(0,0,0);stroke-width:1" /><line x1="159.98371630086427" y1="244.70678962876093" x2="203.97841150110267" y2="259.867956720836" style="stroke:rgb(0,0,0);stroke-width:1" /><line x1="203.97841150110267" y1="259.867956720836" x2="257.8979617095268" y2="184.2575087777643" style="stroke:rgb(0,0,0);stroke-width:1" /><line x1="257.8979617095268" y1="184.2575087777643" x2="224.4849237088035" y2="254.77671504365765" style="stroke:rgb(0,0,0);stroke-width:1" /><line x1="224.4849237088035" y1="254.77671504365765" x2="237.999152185178" y2="246.43344089347335" style="stroke:rgb(0,0,0);stroke-width:1" /><line x1="237.999152185178" y1="246.43344089347335" x2="237.999152185178" y2="246.43344089347335" style="stroke:rgb(0,0,0);stroke-width:1" /><line x1="237.999152185178" y1="246.43344089347335" x2="142.8552211750906" y2="181.711362733867" style="stroke:rgb(0,0,0);stroke-width:1" /><line x1="142.8552211750906" y1="181.711362733867" x2="251.73913233726103" y2="169.61806153341448" style="stroke:rgb(0,0,0);stroke-width:1" /><line x1="251.73913233726103" y1="169.61806153341448" x2="159.98371630086427" y2="244.70678962876093" style="stroke:rgb(0,0,0);stroke-width:1" /><line x1="159.98371630086427" y1="244.70678962876093" x2="257.8979617095268" y2="184.2575087777643" style="stroke:rgb(0,0,0);stroke-width:1" /><line x1="257.8979617095268" y1="184.2575087777643" x2="224.4849237088035" y2="254.77671504365765" style="stroke:rgb(0,0,0);stroke-width:1" /><line x1="224.4849237088035" y1="254.77671504365765" x2="142.8552211750906" y2="181.711362733867" style="stroke:rgb(0,0,0);stroke-width:1" /><line x1="142.8552211750906" y1="181.711362733867" x2="159.98371630086427" y2="244.70678962876093" style="stroke:rgb(0,0,0);stroke-width:1" /><line x1="159.98371630086427" y1="244.70678962876093" x2="237.999152185178" y2="246.43344089347335" style="stroke:rgb(0,0,0);stroke-width:1" /><line x1="237.999152185178" y1="246.43344089347335" x2="257.8979617095268" y2="184.2575087777643" style="stroke:rgb(0,0,0);stroke-width:1" /><line x1="257.8979617095268" y1="184.2575087777643" x2="224.4849237088035" y2="254.77671504365765" style="stroke:rgb(0,0,0);stroke-width:1" /><line x1="224.4849237088035" y1="254.77671504365765" x2="193.37676536965714" y2="140.3666807645975" style="stroke:rgb(0,0,0);stroke-width:1" /><line x1="193.37676536965714" y1="140.3666807645975" x2="224.4849237088035" y2="254.77671504365765" style="stroke:rgb(0,0,0);stroke-width:1" /><line x1="224.4849237088035" y1="254.77671504365765" x2="142.8552211750906" y2="181.711362733867" style="stroke:rgb(0,0,0);stroke-width:1" /><line x1="142.8552211750906" y1="181.711362733867" x2="159.98371630086427" y2="244.70678962876093" style="stroke:rgb(0,0,0);stroke-width:1" /><line x1="159.98371630086427" y1="244.70678962876093" x2="237.999152185178" y2="246.43344089347335" style="stroke:rgb(0,0,0);stroke-width:1" /><line x1="237.999152185178" y1="246.43344089347335" x2="257.8979617095268" y2="184.2575087777643" style="stroke:rgb(0,0,0);stroke-width:1" /><line x1="257.8979617095268" y1="184.2575087777643" x2="224.4849237088035" y2="254.77671504365765" style="stroke:rgb(0,0,0);stroke-width:1" /><line x1="224.4849237088035" y1="254.77671504365765" x2="193.37676536965714" y2="140.3666807645975" style="stroke:rgb(0,0,0);stroke-width:1" /><line x1="193.37676536965714" y1="140.3666807645975" x2="224.4849237088035" y2="254.77671504365765" style="stroke:rgb(0,0,0);stroke-width:1" /><line x1="224.4849237088035" y1="254.77671504365765" x2="224.4849237088035" y2="254.77671504365765" style="stroke:rgb(0,0,0);stroke-width:1" /><line x1="224.4849237088035" y1="254.77671504365765" x2="142.8552211750906" y2="181.711362733867" style="stroke:rgb(0,0,0);stroke-width:1" /><line x1="142.8552211750906" y1="181.711362733867" x2="193.37676536965714" y2="140.3666807645975" style="stroke:rgb(0,0,0);stroke-width:1" /><line x1="193.37676536965714" y1="140.3666807645975" x2="193.37676536965714" y2="140.3666807645975" style="stroke:rgb(0,0,0);stroke-width:1" /><line x1="193.37676536965714" y1="140.3666807645975" x2="251.73913233726103" y2="169.61806153341448" style="stroke:rgb(0,0,0);stroke-width:1" /><line x1="251.73913233726103" y1="169.61806153341448" x2="214.45929831711553" y2="141.76831882749167" style="stroke:rgb(0,0,0);stroke-width:1" /><line x1="214.45929831711553" y1="141.76831882749167" x2="159.98371630086427" y2="244.70678962876093" style="stroke:rgb(0,0,0);stroke-width:1" /><line x1="159.98371630086427" y1="244.70678962876093" x2="156.18835057126174" y2="240.99438222895105" style="stroke:rgb(0,0,0);stroke-width:1" /><line x1="156.18835057126174" y1="240.99438222895105" x2="152.73824350129652" y2="163.03614775679813" style="stroke:rgb(0,0,0);stroke-width:1" /><line x1="152.73824350129652" y1="163.03614775679813" x2="259.0629170379503" y2="189.43724321172732" style="stroke:rgb(0,0,0);stroke-width:1" /><line x1="259.0629170379503" y1="189.43724321172732" x2="144.69562520724105" y2="176.73143475024622" style="stroke:rgb(0,0,0);stroke-width:1" /><line x1="144.69562520724105" y1="176.73143475024622" x2="177.9625201727182" y2="144.1936429887943" style="stroke:rgb(0,0,0);stroke-width:1" /><line x1="177.9625201727182" y1="144.1936429887943" x2="142.8552211750906" y2="181.711362733867" style="stroke:rgb(0,0,0);stroke-width:1" /><line x1="142.8552211750906" y1="181.711362733867" x2="233.74573560600464" y2="249.61073803532489" style="stroke:rgb(0,0,0);stroke-width:1" /><line x1="233.74573560600464" y1="249.61073803532489" x2="198.67420284327898" y2="140.01464960593103" style="stroke:rgb(0,0,0);stroke-width:1" /><line x1="198.67420284327898" y1="140.01464960593103" x2="168.47914168906564" y2="251.05326131935158" style="stroke:rgb(0,0,0);stroke-width:1" /><line x1="168.47914168906564" y1="251.05326131935158" x2="142.8552211750906" y2="181.711362733867" style="stroke:rgb(0,0,0);stroke-width:1" /><line x1="142.8552211750906" y1="181.711362733867" x2="159.98371630086427" y2="244.70678962876093" style="stroke:rgb(0,0,0);stroke-width:1" /><line x1="159.98371630086427" y1="244.70678962876093" x2="257.8979617095268" y2="184.2575087777643" style="stroke:rgb(0,0,0);stroke-width:1" /><line x1="257.8979617095268" y1="184.2575087777643" x2="224.4849237088035" y2="254.77671504365765" style="stroke:rgb(0,0,0);stroke-width:1" /><line x1="224.4849237088035" y1="254.77671504365765" x2="237.999152185178" y2="246.43344089347335" style="stroke:rgb(0,0,0);stroke-width:1" /><line x1="237.999152185178" y1="246.43344089347335" x2="237.999152185178" y2="246.43344089347335" style="stroke:rgb(0,0,0);stroke-width:1" /><line x1="237.999152185178" y1="246.43344089347335" x2="142.8552211750906" y2="181.711362733867" style="stroke:rgb(0,0,0);stroke-width:1" /><line x1="142.8552211750906" y1="181.711362733867" x2="251.73913233726103" y2="169.61806153341448" style="stroke:rgb(0,0,0);stroke-width:1" /><line x1="251.73913233726103" y1="169.61806153341448" x2="177.9625201727182" y2="144.1936429887943" style="stroke:rgb(0,0,0);stroke-width:1" /><line x1="177.9625201727182" y1="144.1936429887943" x2="152.73824350129652" y2="163.03614775679813" style="stroke:rgb(0,0,0);stroke-width:1" /><line x1="152.73824350129652" y1="163.03614775679813" x2="219.5468783321089" y2="256.726709295267" style="stroke:rgb(0,0,0);stroke-width:1" /><line x1="219.5468783321089" y1="256.726709295267" x2="142.8552211750906" y2="181.711362733867" style="stroke:rgb(0,0,0);stroke-width:1" /><line x1="142.8552211750906" y1="181.711362733867" x2="152.73824350129652" y2="163.03614775679813" style="stroke:rgb(0,0,0);stroke-width:1" /><line x1="152.73824350129652" y1="163.03614775679813" x2="219.5468783321089" y2="256.726709295267" style="stroke:rgb(0,0,0);stroke-width:1" /><line x1="219.5468783321089" y1="256.726709295267" x2="142.8552211750906" y2="181.711362733867" style="stroke:rgb(0,0,0);stroke-width:1" /><line x1="142.8552211750906" y1="181.711362733867" x2="159.98371630086427" y2="244.70678962876093" style="stroke:rgb(0,0,0);stroke-width:1" /><line x1="159.98371630086427" y1="244.70678962876093" x2="257.8979617095268" y2="184.2575087777643" style="stroke:rgb(0,0,0);stroke-width:1" /><line x1="257.8979617095268" y1="184.2575087777643" x2="224.4849237088035" y2="254.77671504365765" style="stroke:rgb(0,0,0);stroke-width:1" /><line x1="224.4849237088035" y1="254.77671504365765" x2="237.999152185178" y2="246.43344089347335" style="stroke:rgb(0,0,0);stroke-width:1" /><line x1="237.999152185178" y1="246.43344089347335" x2="237.999152185178" y2="246.43344089347335" style="stroke:rgb(0,0,0);stroke-width:1" /><line x1="237.999152185178" y1="246.43344089347335" x2="142.8552211750906" y2="181.711362733867" style="stroke:rgb(0,0,0);stroke-width:1" /><line x1="142.8552211750906" y1="181.711362733867" x2="251.73913233726103" y2="169.61806153341448" style="stroke:rgb(0,0,0);stroke-width:1" /><line x1="251.73913233726103" y1="169.61806153341448" x2="159.98371630086427" y2="244.70678962876093" style="stroke:rgb(0,0,0);stroke-width:1" /><line x1="159.98371630086427" y1="244.70678962876093" x2="156.18835057126174" y2="240.99438222895105" style="stroke:rgb(0,0,0);stroke-width:1" /><line x1="156.18835057126174" y1="240.99438222895105" x2="152.73824350129652" y2="163.03614775679813" style="stroke:rgb(0,0,0);stroke-width:1" /><line x1="152.73824350129652" y1="163.03614775679813" x2="259.0629170379503" y2="189.43724321172732" style="stroke:rgb(0,0,0);stroke-width:1" /><line x1="259.0629170379503" y1="189.43724321172732" x2="144.69562520724105" y2="176.73143475024622" style="stroke:rgb(0,0,0);stroke-width:1" /><line x1="144.69562520724105" y1="176.73143475024622" x2="142.8552211750906" y2="181.711362733867" style="stroke:rgb(0,0,0);stroke-width:1" /><line x1="142.8552211750906" y1="181.711362733867" x2="233.74573560600464" y2="249.61073803532489" style="stroke:rgb(0,0,0);stroke-width:1" /><line x1="233.74573560600464" y1="249.61073803532489" x2="198.67420284327898" y2="140.01464960593103" style="stroke:rgb(0,0,0);stroke-width:1" /><line x1="198.67420284327898" y1="140.01464960593103" x2="168.47914168906564" y2="251.05326131935158" style="stroke:rgb(0,0,0);stroke-width:1" /><line x1="168.47914168906564" y1="251.05326131935158" x2="142.8552211750906" y2="181.711362733867" style="stroke:rgb(0,0,0);stroke-width:1" /><line x1="142.8552211750906" y1="181.711362733867" x2="146.9673516090577" y2="228.06311110056555" style="stroke:rgb(0,0,0);stroke-width:1" /><line x1="146.9673516090577" y1="228.06311110056555" x2="146.9673516090577" y2="228.06311110056555" style="stroke:rgb(0,0,0);stroke-width:1" /><line x1="146.9673516090577" y1="228.06311110056555" x2="146.9673516090577" y2="228.06311110056555" style="stroke:rgb(0,0,0);stroke-width:1" /><line x1="146.9673516090577" y1="228.06311110056555" x2="146.9673516090577" y2="228.06311110056555" style="stroke:rgb(0,0,0);stroke-width:1" /><line x1="146.9673516090577" y1="228.06311110056555" x2="146.9673516090577" y2="228.06311110056555" style="stroke:rgb(0,0,0);stroke-width:1" /><line x1="146.9673516090577" y1="228.06311110056555" x2="146.9673516090577" y2="228.06311110056555" style="stroke:rgb(0,0,0);stroke-width:1" /><line x1="146.9673516090577" y1="228.06311110056555" x2="229.23126050042035" y2="147.60216216716032" style="stroke:rgb(0,0,0);stroke-width:1" /><line x1="229.23126050042035" y1="147.60216216716032" x2="142.8552211750906" y2="181.711362733867" style="stroke:rgb(0,0,0);stroke-width:1" /><line x1="142.8552211750906" y1="181.711362733867" x2="159.98371630086427" y2="244.70678962876093" style="stroke:rgb(0,0,0);stroke-width:1" /><line x1="159.98371630086427" y1="244.70678962876093" x2="159.98371630086427" y2="244.70678962876093" style="stroke:rgb(0,0,0);stroke-width:1" /><line x1="159.98371630086427" y1="244.70678962876093" x2="159.98371630086427" y2="244.70678962876093" style="stroke:rgb(0,0,0);stroke-width:1" /><line x1="159.98371630086427" y1="244.70678962876093" x2="159.98371630086427" y2="244.70678962876093" style="stroke:rgb(0,0,0);stroke-width:1" /><line x1="159.98371630086427" y1="244.70678962876093" x2="159.98371630086427" y2="244.70678962876093" style="stroke:rgb(0,0,0);stroke-width:1" /><line x1="159.98371630086427" y1="244.70678962876093" x2="159.98371630086427" y2="244.70678962876093" style="stroke:rgb(0,0,0);stroke-width:1" /><line x1="159.98371630086427" y1="244.70678962876093" x2="257.8979617095268" y2="184.2575087777643" style="stroke:rgb(0,0,0);stroke-width:1" /><line x1="257.8979617095268" y1="184.2575087777643" x2="224.4849237088035" y2="254.77671504365765" style="stroke:rgb(0,0,0);stroke-width:1" /><line x1="224.4849237088035" y1="254.77671504365765" x2="142.8552211750906" y2="181.711362733867" style="stroke:rgb(0,0,0);stroke-width:1" /><line x1="142.8552211750906" y1="181.711362733867" x2="257.8979617095268" y2="184.2575087777643" style="stroke:rgb(0,0,0);stroke-width:1" /><line x1="257.8979617095268" y1="184.2575087777643" x2="224.4849237088035" y2="254.77671504365765" style="stroke:rgb(0,0,0);stroke-width:1" /><line x1="224.4849237088035" y1="254.77671504365765" x2="254.22230671823684" y2="174.3106743149329" style="stroke:rgb(0,0,0);stroke-width:1" /><line x1="254.22230671823684" y1="174.3106743149329" x2="159.98371630086427" y2="244.70678962876093" style="stroke:rgb(0,0,0);stroke-width:1" /><line x1="159.98371630086427" y1="244.70678962876093" x2="257.8979617095268" y2="184.2575087777643" style="stroke:rgb(0,0,0);stroke-width:1" /><line x1="257.8979617095268" y1="184.2575087777643" x2="257.8979617095268" y2="184.2575087777643" style="stroke:rgb(0,0,0);stroke-width:1" /><line x1="257.8979617095268" y1="184.2575087777643" x2="224.4849237088035" y2="254.77671504365765" style="stroke:rgb(0,0,0);stroke-width:1" /><line x1="224.4849237088035" y1="254.77671504365765" x2="237.999152185178" y2="246.43344089347335" style="stroke:rgb(0,0,0);stroke-width:1" /><line x1="237.999152185178" y1="246.43344089347335" x2="140.52807069468759" y2="192.05710224767287" style="stroke:rgb(0,0,0);stroke-width:1" /><line x1="140.52807069468759" y1="192.05710224767287" x2="237.999152185178" y2="246.43344089347335" style="stroke:rgb(0,0,0);stroke-width:1" /><line x1="237.999152185178" y1="246.43344089347335" x2="142.8552211750906" y2="181.711362733867" style="stroke:rgb(0,0,0);stroke-width:1" /><line x1="142.8552211750906" y1="181.711362733867" x2="251.73913233726103" y2="169.61806153341448" style="stroke:rgb(0,0,0);stroke-width:1" /><line x1="251.73913233726103" y1="169.61806153341448" x2="254.22230671823684" y2="174.3106743149329" style="stroke:rgb(0,0,0);stroke-width:1" /><line x1="254.22230671823684" y1="174.3106743149329" x2="245.58009860043347" y2="239.01864440975316" style="stroke:rgb(0,0,0);stroke-width:1" /><line x1="245.58009860043347" y1="239.01864440975316" x2="254.22230671823684" y2="174.3106743149329" style="stroke:rgb(0,0,0);stroke-width:1" /><line x1="254.22230671823684" y1="174.3106743149329" x2="245.58009860043347" y2="239.01864440975316" style="stroke:rgb(0,0,0);stroke-width:1" /><line x1="245.58009860043347" y1="239.01864440975316" x2="254.22230671823684" y2="174.3106743149329" style="stroke:rgb(0,0,0);stroke-width:1" /><line x1="254.22230671823684" y1="174.3106743149329" x2="245.58009860043347" y2="239.01864440975316" style="stroke:rgb(0,0,0);stroke-width:1" /><line x1="245.58009860043347" y1="239.01864440975316" x2="254.22230671823684" y2="174.3106743149329" style="stroke:rgb(0,0,0);stroke-width:1" /><line x1="254.22230671823684" y1="174.3106743149329" x2="245.58009860043347" y2="239.01864440975316" style="stroke:rgb(0,0,0);stroke-width:1" /><line x1="245.58009860043347" y1="239.01864440975316" x2="254.22230671823684" y2="174.3106743149329" style="stroke:rgb(0,0,0);stroke-width:1" /><line x1="254.22230671823684" y1="174.3106743149329" x2="245.58009860043347" y2="239.01864440975316" style="stroke:rgb(0,0,0);stroke-width:1" /><line x1="245.58009860043347" y1="239.01864440975316" x2="254.22230671823684" y2="174.3106743149329" style="stroke:rgb(0,0,0);stroke-width:1" /><line x1="254.22230671823684" y1="174.3106743149329" x2="245.58009860043347" y2="239.01864440975316" style="stroke:rgb(0,0,0);stroke-width:1" /><line x1="245.58009860043347" y1="239.01864440975316" x2="254.22230671823684" y2="174.3106743149329" style="stroke:rgb(0,0,0);stroke-width:1" /><line x1="254.22230671823684" y1="174.3106743149329" x2="142.8552211750906" y2="181.711362733867" style="stroke:rgb(0,0,0);stroke-width:1" /><line x1="142.8552211750906" y1="181.711362733867" x2="251.73913233726103" y2="169.61806153341448" style="stroke:rgb(0,0,0);stroke-width:1" /><line x1="251.73913233726103" y1="169.61806153341448" x2="142.8552211750906" y2="181.711362733867" style="stroke:rgb(0,0,0);stroke-width:1" /><line x1="142.8552211750906" y1="181.711362733867" x2="182.98200324907" y2="142.46403049756321" style="stroke:rgb(0,0,0);stroke-width:1" /></svg>
